Simulation
nRows=34
nColumns=15
endheader
time  TH_x TH_y TH_z SC_y  SC_z  SC_x  AC_y  AC_z  AC_x  GH_y  GH_z  GH_yy  EL_x  PS_y
0.0  0.000000  0.000000  0.000000  -7.514073303726367  -0.5295384968905069  5.897255181208377  52.23333079801661  0.9091206111900568  -18.802588788281923  46.941034700706474  14.029265891356566  -20.163987350584925  23.188522509119377  120.000000
0.02789999999999999  0.000000  0.000000  0.000000  -7.769752368426535  -0.3471338865871591  5.8382237001697534  52.236745840357884  1.1446912318521532  -18.69412525883489  46.63227991131617  13.989146330789449  -20.30455918312247  22.73080998175712  120.000000
0.05579999999999998  0.000000  0.000000  0.000000  -7.947600533836682  -0.28968078543854  5.772068105663406  52.298115451222294  1.2953520057237842  -18.507680138797884  46.40797276871254  14.038604657541798  -20.422853119127776  22.397057561787285  120.000000
0.08369999999999997  0.000000  0.000000  0.000000  -8.047574906594248  -0.34499973763331804  5.697001628536589  52.41175706889563  1.379357877813885  -18.324819927490275  46.27981858615805  14.184934456904061  -20.532996544458538  22.198363261609305  120.000000
0.11159999999999996  0.000000  0.000000  0.000000  -8.09808654192426  -0.47808643985640564  5.6191429998377185  52.560837795628615  1.4316183550450923  -18.19846697011337  46.246239634923604  14.440107875253162  -20.658942850325683  22.119897114806292  120.000000
0.13949999999999996  0.000000  0.000000  0.000000  -8.126696878194732  -0.6586774917868691  5.550846242342909  52.72164260928904  1.4900344181691914  -18.147080243410663  46.285074623354234  14.808272752702297  -20.835563076680863  22.112796631582174  120.000000
0.16739999999999994  0.000000  0.000000  0.000000  -8.148863925182829  -0.8547389502987128  5.503533594654874  52.88501235512479  1.5737944880003234  -18.15609764228924  46.37398329262825  15.290108550491444  -21.0923772874604  22.13109333480469  120.000000
0.19529999999999995  0.000000  0.000000  0.000000  -8.161820913714903  -1.042142301590017  5.484460087985495  53.052352663926776  1.6843755820562158  -18.199364111709162  46.497601229081475  15.882565348782881  -21.449688003065813  22.14403289729341  120.000000
0.22319999999999993  0.000000  0.000000  0.000000  -8.157346866823204  -1.2055339751303256  5.496909030524407  53.22865945217008  1.8137735965414363  -18.253073803378136  46.647801037971696  16.580895042471873  -21.919317932417822  22.134960416287157  120.000000
0.25109999999999993  0.000000  0.000000  0.000000  -8.127395512136836  -1.3345265281772647  5.541463378776037  53.41623002522707  1.9529846495252234  -18.301703870158857  46.82191159780627  17.382073868487552  -22.506695431840257  22.097791387970233  120.000000
0.2789999999999999  0.000000  0.000000  0.000000  -8.067722450330779  -1.4224873298272127  5.61752123094575  53.61614603215744  2.0967568447227034  -18.337030250298113  47.01907248413132  18.28735186015928  -23.212865624017486  22.030411075904482  120.000000
0.3068999999999999  0.000000  0.000000  0.000000  -7.979264613391253  -1.46561823588988  5.72380260926155  53.827719878284135  2.243377965492737  -18.354488001627626  47.23831016022339  19.302822073897932  -24.03542516608639  21.932110883717705  120.000000
0.3347999999999999  0.000000  0.000000  0.000000  -7.8675945772147555  -1.4631894894814865  5.858615677432138  54.050467842954106  2.3932666705552132  -18.350869811527428  47.47683871447802  20.43633663494673  -24.968317161796264  21.801840146626557  120.000000
0.36269999999999986  0.000000  0.000000  0.000000  -7.742725884805788  -1.4154940311459019  6.0196052760388925  54.28431967959358  2.5473682634889645  -18.32275356908189  47.73027755003665  21.69486470125173  -26.000723936612165  21.638440352083265  120.000000
0.3905999999999999  0.000000  0.000000  0.000000  -7.617015642627324  -1.3232278435693383  6.203865223189878  54.530813328016166  2.7067536541685504  -18.26737276548537  47.99203702419203  23.083338303680947  -27.11753464723553  21.44159647881596  120.000000
0.41849999999999987  0.000000  0.000000  0.000000  -7.502965289950689  -1.1879071209098915  6.409874601389079  54.79160181146642  2.8728430211868266  -18.18224633203229  48.2536581425061  24.60218276677867  -28.29937760903682  21.21243154969677  120.000000
0.44639999999999985  0.000000  0.000000  0.000000  -7.411155303013645  -1.011339297612782  6.637362719538109  55.06930237188871  3.0469496246947076  -18.06526349208312  48.504608252609245  26.246678579296375  -29.52436223308677  20.953954121771766  120.000000
0.47429999999999983  0.000000  0.000000  0.000000  -7.349202258216667  -0.7955117177236515  6.886814035919117  55.36726197014023  3.2308427705346907  -17.91495301304773  48.73334632927416  28.006550778025726  -30.769116702831457  20.671012368177127  120.000000
0.5021999999999999  0.000000  0.000000  0.000000  -7.32141097198117  -0.5431967001619178  7.15883458055149  55.688902277120825  3.426922773999467  -17.73056970194924  48.92785729950475  29.86692267841305  -32.01132689532509  20.36984533945068  120.000000
0.5300999999999998  0.000000  0.000000  0.000000  -7.330109281892832  -0.2583878020907707  7.454376683855403  56.037748038038444  3.638055229428439  -17.511538234289354  49.07666353717796  31.809318584148617  -33.231534178687724  20.05719793158886  120.000000
0.5579999999999998  0.000000  0.000000  0.000000  -7.377256253632493  0.05387925931439766  7.774588644007125  56.41717562273494  3.867448577623725  -17.257268397307787  49.17006339799373  33.813173499497026  -34.414649619341816  19.739680127757865  120.000000
0.5858999999999998  0.000000  0.000000  0.000000  -7.466172816466623  0.38851927349768955  8.119812701078828  56.830785010285894  4.119684273702613  -16.96676608831155  49.201268571873705  35.85702924827274  -35.55054779091492  19.42351498656277  120.000000
0.6137999999999998  0.000000  0.000000  0.000000  -7.603089405527749  0.7414309952530755  8.490293661387243  57.28201324037323  4.400634658039746  -16.63901397325655  49.1673390707034  37.91960952333867  -36.633907437054404  19.114455824185146  120.000000
0.6416999999999998  0.000000  0.000000  0.000000  -7.797740119734639  1.1101236063210713  8.888332112315426  57.77360085596912  4.715637192552978  -16.27388425757404  49.06899495908139  39.980125280022676  -37.663789495566846  18.817744329756696  120.000000
0.6695999999999998  0.000000  0.000000  0.000000  -8.06229652589575  1.4941135344303846  9.318230919169181  58.30669966457437  5.068527791035665  -15.87184752367392  48.91019715356732  42.01789976499152  -38.64265833441007  18.538289104505402  120.000000
0.6974999999999998  0.000000  0.000000  0.000000  -8.409165931536952  1.894754165811403  9.785141248063598  58.88095724713387  5.460913178972011  -15.43311456346819  48.696778614470105  44.01212921901876  -39.575171486179194  18.28090629883848  120.000000
0.7253999999999997  0.000000  0.000000  0.000000  -8.848204040624902  2.3145846972253796  10.294421444034063  59.49422270482665  5.891057165259345  -14.95651638855263  48.43489305553775  45.9419961289647  -40.46704560050418  18.050929504484003  120.000000
0.7532999999999997  0.000000  0.000000  0.000000  -9.38378147238121  2.7566531492813304  10.850588584907356  60.14251132492352  6.353267084444712  -14.438321350624864  48.129245410514  47.78727121880789  -41.32408280758258  17.8548154890712  120.000000
0.7811999999999998  0.000000  0.000000  0.000000  -10.013159533967452  3.2240070239376295  11.456835181421845  60.82037444610882  6.8377368843350546  -13.87210466080817  47.782122680995194  49.52922966460559  -42.15127750582298  17.700525447544162  120.000000
0.8090999999999997  0.000000  0.000000  0.000000  -10.726766080200159  3.719327506683641  12.115266217808713  61.52154300192218  7.330896774496756  -13.250053321293901  47.39282929492649  51.15187960143069  -42.952117468324865  17.59768647393251  120.000000
0.8369999999999997  0.000000  0.000000  0.000000  -11.51008930395328  4.244453287938802  12.827335011536618  62.239442747283874  7.817077833953649  -12.5647770730928  46.958235506923664  52.642958715168014  -43.72807561376063  17.55697052125187  120.000000
0.8648999999999997  0.000000  0.000000  0.000000  -12.346381938013387  4.799672169166257  13.594181181529661  62.967595847112726  8.280549294438876  -11.811002489259053  46.473663862165445  53.99497376545709  -44.47829861715376  17.588903374407078  120.000000
0.8927999999999997  0.000000  0.000000  0.000000  -13.219408439652089  5.383150094635948  14.417151719747805  63.700113533383764  8.707226793963468  -10.98710000338626  45.933828305547195  55.20582736104241  -45.19978221293686  17.702386393750487  120.000000
0.9206999999999997  0.000000  0.000000  0.000000  -14.115504905590216  5.990738530044176  15.298264584090246  64.43200813526893  9.085623713421993  -10.096067381505934  45.33350444259441  56.27879436747416  -45.88774639993615  17.903211525185267  120.000000
